<svg width="24" height="24" viewBox="0 0 24 24" fill="none" xmlns="http://www.w3.org/2000/svg">
<path d="M16 21.0009V19.0009C16 16.7932 14.2077 15.0009 12 15.0009H6C3.79234 15.0009 2 16.7932 2 19.0009V21.0009M16 3.12891C17.7642 3.58627 18.9962 5.17837 18.9962 7.00091C18.9962 8.82344 17.7642 10.4155 16 10.8729M22 21.0009V19.0009C21.9986 17.178 20.765 15.5866 19 15.1309" stroke="#F97316" stroke-width="2" stroke-linecap="round" stroke-linejoin="round"/>
<path d="M5 7C5 8.42906 5.7624 9.74957 7 10.4641C8.2376 11.1786 9.7624 11.1786 11 10.4641C12.2376 9.74957 13 8.42906 13 7C13 4.79234 11.2077 3 9 3C6.79234 3 5 4.79234 5 7H5" stroke="#F97316" stroke-width="2" stroke-linecap="round" stroke-linejoin="round"/>
</svg>
