<svg width="24" height="24" viewBox="0 0 24 24" fill="none" xmlns="http://www.w3.org/2000/svg">
<path d="M12.83 2.18036C12.3028 1.93988 11.6972 1.93988 11.17 2.18036L2.59996 6.08036C2.23739 6.24023 2.00342 6.5991 2.00342 6.99536C2.00342 7.39161 2.23739 7.75049 2.59996 7.91036L11.18 11.8204C11.7072 12.0608 12.3128 12.0608 12.84 11.8204L21.42 7.92036C21.7825 7.76049 22.0165 7.40161 22.0165 7.00536C22.0165 6.6091 21.7825 6.25023 21.42 6.09036L12.83 2.18036" stroke="#F97316" stroke-width="2" stroke-linecap="round" stroke-linejoin="round"/>
<path d="M2 12C1.99904 12.3906 2.22555 12.746 2.58 12.91L11.18 16.82C11.7044 17.0574 12.3056 17.0574 12.83 16.82L21.41 12.92C21.7717 12.7574 22.0031 12.3965 22 12" stroke="#F97316" stroke-width="2" stroke-linecap="round" stroke-linejoin="round"/>
<path d="M2 17C1.99904 17.3906 2.22555 17.746 2.58 17.91L11.18 21.82C11.7044 22.0574 12.3056 22.0574 12.83 21.82L21.41 17.92C21.7717 17.7574 22.0031 17.3965 22 17" stroke="#F97316" stroke-width="2" stroke-linecap="round" stroke-linejoin="round"/>
</svg>
