<svg width="14" height="22" viewBox="0 0 14 22" fill="none" xmlns="http://www.w3.org/2000/svg">
<path d="M10.477 11.8906L11.992 20.4166C12.0268 20.6222 11.9303 20.8278 11.7499 20.9324C11.5696 21.0371 11.3433 21.0188 11.182 20.8866L7.60202 18.1996C7.24707 17.9345 6.75996 17.9345 6.40502 18.1996L2.81902 20.8856C2.65791 21.0176 2.43189 21.0358 2.25168 20.9315C2.07147 20.8271 1.9748 20.622 2.00902 20.4166L3.52302 11.8906" stroke="#F97316" stroke-width="2" stroke-linecap="round" stroke-linejoin="round"/>
<path d="M1 7C1 10.3115 3.68851 13 7 13C10.3115 13 13 10.3115 13 7C13 3.68851 10.3115 1 7 1C3.68851 1 1 3.68851 1 7H1" stroke="#F97316" stroke-width="2" stroke-linecap="round" stroke-linejoin="round"/>
</svg>
